<?xml version="1.0" encoding="utf-8"?>
<!-- Generated by IcoMoon.io -->
<!DOCTYPE svg PUBLIC "-//W3C//DTD SVG 1.1//EN" "http://www.w3.org/Graphics/SVG/1.1/DTD/svg11.dtd">
<svg version="1.1" xmlns="http://www.w3.org/2000/svg" xmlns:xlink="http://www.w3.org/1999/xlink" width="32" height="32" viewBox="0 0 32 32">
<path d="M1 10.875v1.125h6.675l-1.45 4.925c-0.8 2.725-1.475 5.025-1.475 5.125 0 0.125 1.1 0.2 2.45 0.2h2.425l0.75-2.625 0.725-2.625h9.55l0.725 2.625 0.75 2.625h2.425c1.35 0 2.45-0.075 2.45-0.2 0-0.1-0.65-2.375-1.45-5.050l-1.45-4.875 6.9-0.15v-2.225h-30v1.125zM30.5 10.875v0.625h-29v-1.25h29v0.625zM12 12.275c0 0.15-0.125 0.475-0.25 0.75-0.25 0.45-0.15 0.475 4.125 0.475s4.375-0.025 4.125-0.475c-0.5-0.95-0.325-1.050 1.65-0.975l1.9 0.075 1.45 4.8 1.425 4.825h-3.85l-0.8-2.7-0.825-2.675h-10.15l-0.825 2.675-0.8 2.7h-3.85l1.35-4.575c0.75-2.5 1.4-4.7 1.45-4.875 0.15-0.375 3.875-0.425 3.875-0.025zM19.325 12.5c0.125 0.475 0 0.5-3.45 0.5s-3.575-0.025-3.45-0.5c0.125-0.475 0.35-0.5 3.45-0.5s3.325 0.025 3.45 0.5z"></path>
</svg>
